<svg xmlns="http://www.w3.org/2000/svg" width="2803" height="925" viewBox="0 0 2803 925">
  <defs>
    <style>
      .cls-1, .cls-2 {
        fill: #fff;
      }

      .cls-1 {
        fill-rule: evenodd;
      }

      .cls-2 {
        stroke: #fff;
        stroke-linejoin: round;
        stroke-width: 10px;
        font-size: 420.83px;
        text-anchor: middle;
        font-family: 经典行书简;
      }
    </style>
  </defs>
  <path id="形状_1" data-name="形状 1" class="cls-1" d="M693.681,234.336c115.439-2.05,188.594,67.21,220.681,149,16.521,42.114,19.07,110.227,1.906,154.338C883.131,622.84,811.953,691.156,693.681,690.872,695.7,803.928,627.8,878.29,548.085,910c-45.58,18.128-112.6,20.943-160.46,2.286C304.1,879.727,236.793,807.069,237.074,690.872,123.906,692.929,50.18,624.692,17.918,545.3-1.266,498.09-2.333,429.882,16.774,381.433c32.252-81.779,105.852-147.377,220.3-147.1C234.979,118.5,305.04,45.543,387.244,13.308,428.025-2.684,495.377-5.317,538.557,11.021,625.086,43.761,693.97,115.02,693.681,234.336Zm-380.76,75.835c-14.846-.424-31.234-2.032-45.356.762-59.276,11.727-99.116,46.814-118.916,97.938-29.7,76.677,11.574,149.49,58.315,180.634,12.4,8.258,29.334,19.72,47.261,21.34l143.31-366.22q8.193-20.958,16.389-41.919c9.719-24.407,15.333-42.637,43.45-48.779a48.118,48.118,0,0,1,24.774,1.906c8.558,3.361,16.731,9.383,21.725,16.386,6.026,8.452,8.844,19.753,12.959,30.106q13.338,34.1,26.68,68.213l133.78,340.307c52.726-11.918,89.871-52.969,106.72-101.368,7.016-20.152,10.409-51.679,4.955-76.6a169.842,169.842,0,0,0-9.148-30.106c-21.123-49.38-61.323-81.726-121.2-92.6-12.958-2.354-28.188-.309-41.163,0v-1.143c7.236-25.5-3.684-62.155-11.053-79.265-24.71-57.374-96.721-114.671-184.854-87.268-57.53,17.888-95.974,60.557-108.244,123.852C310.673,279.911,312.589,296.251,312.921,310.171Zm150.551-41.157c-8.238,3.454-13.792,3.523-19.819,8.384-8.862,7.147-11.762,23.021-16.389,34.3l-32.016,81.933L342.65,528.15c-10.922,27.475-23.371,52.732-29.348,84.982-2.528,13.641-1.9,33.52.763,46.111,11.947,56.484,40.674,94.794,88.043,115.468,15.211,6.638,40.972,16.655,64.032,14.1,11.934-1.323,23.2-1.181,33.54-3.811,49.314-12.54,85.968-42.377,104.814-85.363,10.131-23.107,19.641-58.551,12.2-92.222-6.348-28.71-17.75-52.5-27.823-77.74Q567.336,474.613,545.8,419.542L501.967,307.5C494.338,288.358,490.255,268.92,463.472,269.014Z"/>
  <text id="谛听云" class="cls-2" transform="translate(1846 697.041) scale(1.601)"><tspan x="0">谛听云</tspan></text>
</svg>
