<svg xmlns="http://www.w3.org/2000/svg" width="925" height="925" viewBox="0 0 925 925">
  <defs>
    <style>
      .cls-1 {
        fill: #fff;
        fill-rule: evenodd;
      }
    </style>
  </defs>
  <path id="形状_1" data-name="形状 1" class="cls-1" d="M691.436,235.611C807,233.559,880.227,302.892,912.348,384.771c16.538,42.158,19.089,110.343,1.908,154.5-33.172,85.253-104.425,153.64-222.82,153.356,2.023,113.174-65.951,187.614-145.749,219.352-45.628,18.148-112.713,20.965-160.629,2.289-83.609-32.589-150.99-105.323-150.708-221.641C121.063,694.686,47.259,626.377,14.964,546.9c-19.2-47.258-20.272-115.538-1.145-164.037C46.105,301,119.781,235.331,234.35,235.611c-2.1-115.953,68.037-188.99,150.327-221.259C425.5-1.657,492.923-4.292,536.149,12.063,622.768,44.837,691.725,116.171,691.436,235.611Zm-381.16,75.915c-14.861-.425-31.267-2.033-45.4.763-59.339,11.74-99.22,46.863-119.041,98.041-29.727,76.757,11.586,149.646,58.376,180.823,12.408,8.267,29.365,19.741,47.311,21.363l143.459-366.6q8.2-20.979,16.407-41.963c9.729-24.432,15.349-42.681,43.5-48.829a48.172,48.172,0,0,1,24.8,1.907c8.567,3.365,16.749,9.393,21.748,16.4,6.033,8.46,8.853,19.773,12.973,30.137q13.352,34.138,26.708,68.285,66.952,170.315,133.92,340.664c52.781-11.931,89.965-53.025,106.832-101.475,7.023-20.173,10.42-51.733,4.96-76.677a170.057,170.057,0,0,0-9.157-30.137c-21.145-49.433-61.387-81.812-121.33-92.7-12.972-2.356-28.218-.309-41.206,0v-1.144c7.243-25.531-3.688-62.22-11.065-79.348-24.737-57.434-96.823-114.791-185.048-87.36C361.424,161.581,322.94,204.3,310.658,267.656,308.026,281.234,309.943,297.592,310.276,311.526Zm150.709-41.2c-8.246,3.458-13.807,3.527-19.84,8.393-8.871,7.154-11.775,23.045-16.406,34.333q-16.024,41.005-32.05,82.019Q366.366,462.4,340.036,529.734c-10.933,27.5-23.395,52.787-29.378,85.071-2.531,13.655-1.9,33.556.763,46.159,11.96,56.543,40.717,94.894,88.136,115.589,15.226,6.645,41.015,16.673,64.1,14.115,11.946-1.324,23.22-1.182,33.575-3.815C546.6,774.3,583.289,744.432,602.155,701.4c10.141-23.131,19.662-58.613,12.209-92.319-6.354-28.74-17.768-52.561-27.852-77.822L543.4,421.012,499.521,308.856C491.883,289.691,487.8,270.232,460.985,270.326Z"/>
</svg>
