<svg xmlns="http://www.w3.org/2000/svg" xmlns:xlink="http://www.w3.org/1999/xlink" width="1900" height="547" viewBox="0 0 1900 547">
  <defs>
    <style>
      .cls-1 {
        fill: #fff;
        fill-rule: evenodd;
      }
    </style>
    <clipPath id="clip-path">
      <rect x="49.515" y="-3" width="2131" height="565"/>
    </clipPath>
  </defs>
  <g clip-path="url(#clip-path)">
    <g id="组_1" data-name="组 1">
      <path id="形状_2" data-name="形状 2" class="cls-1" d="M389.462,12.53l-1.9-7.624A20.178,20.178,0,0,1,395.177,3V4.906L404.7,6.812V8.718h3.809v1.906h3.81l1.9,3.812,5.715,1.906v5.718a20.173,20.173,0,0,1-7.62,1.906C409.242,20.413,395.141,13.746,389.462,12.53Zm55.243-1.906h7.62V12.53h3.809v1.906c2.661,1.864,5.522,3.293,7.62,5.718h1.9v5.718a20.173,20.173,0,0,1-7.62,1.906c-2.253-2.595-3.5-1.858-5.714-3.812l-1.9-3.812-5.715-1.906V10.624ZM374.223,27.777V22.059h1.9V20.153h7.62c4.718,5.326,12.39,5.976,19.049,9.53v1.906h3.81v1.906h3.809V35.4h3.81v1.906h3.81v1.906h3.81v1.906l5.715,1.906,1.905,3.812h3.809l1.905,3.812h3.81l3.81,5.718h3.81l3.81,5.718h3.81l7.619,9.53h3.81L480.9,88.767l7.62,5.718V98.3l9.525,7.624v3.812l5.714,3.812v3.811l5.715,3.812v3.812l3.81,1.906V130.7l3.81,1.906v3.812l3.81,1.906,1.9,7.623c3.046,5.52,6.678,6.624,7.619,15.248a20.178,20.178,0,0,1-7.619,1.906c-17.542-32.643-39.415-64.712-68.577-85.767l-7.62-9.53L440.9,65.9l-1.9-3.812h-3.81l-1.905-3.812-5.714-1.906V54.46h-3.81l-1.9-3.812h-3.81l-1.905-3.812L404.7,43.024C395.612,38.172,385.412,30.2,374.223,27.777Zm51.433-3.812,5.714-1.906v1.906l7.62,1.906,1.9,3.812h3.81l1.905,3.812h3.81q1.9,2.859,3.81,5.718h3.809l3.81,5.718h3.81l7.62,9.53h3.81L486.613,65.9h1.9v5.718a20.173,20.173,0,0,1-7.62,1.906l-9.524-11.436h-3.81l-7.62-9.53h-3.81l-3.809-5.718h-3.81l-3.81-5.718H440.9l-1.9-3.812C431.736,32.435,427.186,35.529,425.656,23.965Zm83.816,144.85h-7.62q-6.666-12.387-13.334-24.777l-3.81-1.906v-3.811l-3.81-1.906V132.6l-5.714-3.812v-3.812l-13.335-11.435v-3.812l-3.81-1.906L450.42,98.3h-3.81L435.18,84.955h-3.81l-3.809-5.718h-3.81l-1.9-3.812h-3.81l-1.905-3.812h-3.81L410.416,67.8h-3.809L404.7,63.99h-3.81V62.084l-7.62-1.906-1.9-3.812h-3.81V54.46h-3.809V52.554h-5.715V50.648h-3.81V48.742h-3.81V46.836c-5.286-3.241-3.463,1.713-5.715-5.718,2.5-1.542,2.244-1.342,3.81-3.812,46.2,18.263,85.388,46.23,112.39,83.86l7.62,5.718V130.7l3.81,1.906v3.812l5.715,3.811,1.9,7.624,3.809,1.906v3.812C506.613,158.673,509.059,160.2,509.472,168.815Zm-22.859,1.906H480.9c-1.265-2.289-3.05-2.671-3.809-3.812V163.1l-3.81-1.906V157.38l-3.81-1.906v-3.812l-5.715-3.812v-3.812l-5.715-3.812v-3.811L438.99,119.261l-15.239-17.153h-3.81l-3.81-5.718h-3.81l-3.81-5.718H404.7l-1.9-3.812-5.715-1.906V83.049h-3.81V81.143h-3.81V79.237h-3.81V77.331h-3.809l-1.905-3.812h-3.81V71.613h-5.715V69.707c-7.21-3.639-8.022.591-9.524-9.53a20.167,20.167,0,0,1,7.619-1.906c5.04,5.688,11.185,3.981,17.144,7.624l1.905,3.812,11.43,3.812,1.9,3.812,7.619,1.906,1.9,3.812h3.81l3.81,5.718h3.81l5.715,7.624h3.809l40,41.931v3.811q2.856,1.906,5.715,3.812c3.747,5.394,4.645,11.152,9.524,15.248v9.529ZM353.269,77.331c12.409,0.553,18.558,6.986,26.669,11.436l11.429,3.812,1.9,3.812h3.81l1.905,3.812h3.81l3.81,5.718h3.809l3.81,5.718h3.81L435.18,130.7l13.335,11.435v3.812q2.856,1.907,5.715,3.812c3.065,4.355,3.69,8.144,7.619,11.436l-1.9,5.717H454.23c-8.811-15.049-22.317-26.162-34.289-38.118l-7.62-9.53h-3.81l-5.714-7.623h-3.81l-1.905-3.812-5.715-1.906v-1.906h-3.81l-1.905-3.812L374.223,96.39l-1.905-3.812h-3.81V90.673h-5.715V88.767c-2.416-1.221-8.392-1.783-9.524-3.812V77.331Zm139.059,1.906,5.715-1.906v1.906c8.4,2.274,5.074,4.6,9.524,9.53l7.62,5.718V98.3l5.715,3.812v3.812l5.714,3.812v3.812l3.81,1.905v3.812l3.81,1.906v3.812h1.9v3.812l3.81,1.906v3.812h1.9v3.812h1.9l1.905,5.717h-1.905l-1.9,3.812h-3.81c-1.214-2.3-3.142-2.763-3.81-3.812v-3.812h-1.9v-3.811l-3.81-1.906-1.9-7.624-3.809-1.906v-3.812L519,119.261v-3.812l-5.715-3.811v-3.812l-5.715-3.812V100.2l-3.81-1.906V96.39l-3.809-1.906V90.673C495.984,85.116,493.848,89.764,492.328,79.237ZM343.744,104.014V96.39h1.9V94.484c10.308,2.148,18.487,8.926,26.669,13.342l7.62,1.906,1.905,3.812h3.809v1.905l5.715,1.906,1.9,3.812h3.81l5.715,7.624h3.81l15.239,17.153,9.524,7.624v3.812l7.62,5.718v3.811l5.715,3.812,1.905,7.624c7.738,12.222,18.679,22.246,19.049,41.93h-1.9v1.906c-3.828-1.093-1.648.229-3.81-1.906-6.561-5.8-8.907-18.417-13.334-26.683h-1.905V189.78h-1.9v-3.811l-3.81-1.906v-3.812h-1.905l-1.9-5.718-3.81-1.906v-3.812l-7.619-5.717v-3.812l-15.24-13.342-7.619-9.529h-3.81l-5.715-7.624h-3.81l-1.905-3.812-5.714-1.906v-1.906h-3.81l-1.9-3.812-7.62-1.906-1.905-3.811ZM559,130.7h-7.62c-4.895-10.728-15.6-19.522-17.144-32.4l5.715-1.906V98.3c9.032,5.538,11.111,18.185,19.049,24.777V130.7ZM336.125,113.544l19.049,5.717,1.905,3.812h3.81v1.906l7.619,1.906,1.905,3.812,7.62,1.906,3.81,5.718h3.809l3.81,5.717h3.81l7.62,9.53,15.239,13.341v3.812l5.715,3.812,1.9,5.718,3.81,1.906v3.812q1.9,0.953,3.809,1.906,0.952,3.811,1.9,7.623l3.81,1.906,1.905,7.624h1.9l1.905,7.624h1.9v5.717h1.905v3.812h1.9V227.9h1.905v5.718h1.9v7.623h1.905v7.624h1.9V260.3c4.862,17.135,5.114,41.944,0,59.083q-0.951,9.53-1.9,19.06h-1.905l-1.9,13.341h-1.905V355.6h-1.9v5.718h-1.905l-1.9,7.623H440.9v5.718l-3.81,1.906L433.275,388l-3.809,1.9v3.812h-1.905l-1.9,5.718-3.81,1.906v3.812l-9.525,7.624v3.811l-3.81,1.906c-4.39,4.629-6.75,8.8-13.334,11.436v-1.906c-3.274-2.147-2.581-1.206-3.81-5.718L404.7,410.868v-3.812l9.524-7.624V395.62l3.81-1.906V389.9l3.81-1.9,1.9-5.718h1.905l1.9-7.624h1.905v-3.812h1.9q1.9-5.717,3.81-11.435h1.9V353.69h1.905v-3.812h1.9V344.16H442.8v-7.623h1.9v-7.624h1.905v-9.53h1.9V302.23h1.905V275.547h-1.905V258.394q-5.715-19.058-11.43-38.119h-1.9q-1.9-5.717-3.81-11.435h-1.9v-3.812h-1.905l-3.81-11.436-3.81-1.906v-3.811l-5.715-3.812v-3.812q-2.856-1.907-5.715-3.812v-3.812l-7.619-5.718-13.335-15.247h-3.809l-5.715-7.624h-3.81l-1.905-3.812h-3.81l-1.9-3.811-7.619-1.906-1.9-3.812-22.859-9.53C332.512,117.605,335.57,115.356,336.125,113.544ZM326.6,132.6c12.388,0.536,18.589,6.965,26.669,11.435l7.62,1.906q0.951,1.907,1.9,3.812h3.81l1.9,3.812h3.81l7.62,9.53h3.81l9.524,11.435,3.81,1.906v3.812l7.62,5.718v3.811l5.714,3.812V197.4l3.81,1.906,1.9,7.624,3.81,1.906v3.812h1.905v3.811h1.9v5.718h1.905l1.9,7.624h1.905v5.718h1.9v5.717h1.9v7.624h1.905v9.53h1.9v9.529h1.905c2.623,9.2-.039,35.444-1.905,41.931V323.2h-1.9v7.624h-1.905v7.624h-1.9q-0.951,5.717-1.9,11.435h-1.905v3.812h-1.9l-5.715,17.153-3.81,1.906-1.9,7.624-3.81,1.906v3.812L404.7,389.9v3.812l-7.62,5.718v3.812h-1.9l-9.525,11.435h-7.619l-1.905-5.717,13.334-11.436v-3.812l9.525-7.623v-3.812l3.81-1.906,1.9-5.718h1.905q1.9-5.716,3.809-11.435h1.905v-3.812h1.9l3.81-11.436h1.9v-5.718h1.905c6.325-15.97,7.657-35.235,7.62-57.177V269.829h-1.905V258.394h-1.9V250.77h-1.905v-7.624h-1.9v-5.717h-1.905v-5.718h-1.9l-1.905-7.624h-1.9l-1.9-9.53-3.81-1.905q-0.951-3.811-1.9-7.624H404.7l-1.9-5.718-3.81-1.906v-3.812l-7.62-5.717v-3.812l-3.81-1.906-11.429-13.342h-3.81l-5.715-7.623h-3.81q-0.951-1.907-1.9-3.812h-3.81l-1.905-3.812h-3.81l-1.9-3.812h-3.81V147.85h-3.81v-1.906c-5.869-3.135-11.48-2.147-15.239-7.623H324.7Zm-9.525,19.059c12.678,0.171,15.17,3.28,22.859,7.624h3.81l1.9,3.812,7.62,1.9,3.81,5.718h3.81l5.714,7.624h3.81l7.62,9.53,3.81,1.905v3.812l7.619,5.718v3.812l5.715,3.812q0.952,3.811,1.9,7.623l3.81,1.906q2.858,8.577,5.715,17.154h1.9v3.812h1.9l3.81,19.059c1.917,5.9,8.258,29.231,5.715,38.118h-1.9L416.131,323.2c-9.7,30.811-24.13,59.227-47.623,76.237q-3.808,4.764-7.619,9.53h-3.81l-1.905,3.812h-3.81l-1.9,3.811c-24.525,15.5-75.435,28.868-110.485,17.154h-7.62v-1.906l-17.144-3.812v-1.906L202.78,422.3V420.4h-3.81v-1.906l-7.619-1.906-1.905-3.811h-3.81l-3.81-5.718h-3.81l-7.619-9.53c-8.826-8.816-23.161-16.83-24.764-32.4h1.905v-1.9h3.81l5.714,7.623h1.905v3.812l9.525,7.624v3.812H170.4l3.81,5.717h3.809l7.62,9.53h3.81l1.905,3.812,5.715,1.906v1.906l7.619,1.906v1.906l11.43,3.811v1.906h5.715V420.4h3.809V422.3h5.715v1.906l19.049,1.906v1.906c12.521,3.537,43.652-1.253,51.433-3.812h7.62V422.3l11.429-1.906v-1.906l11.43-3.812v-1.9h3.81v-1.906l7.619-1.906,1.9-3.812h3.81l1.9-3.812h3.81v-1.906c4.387-3.647,7.075-7.782,13.334-9.53,1.913-6.9,7.35-10.345,11.43-15.247h1.905v-3.812q1.9-.952,3.809-1.906l1.905-5.717h1.9l1.905-7.624h1.9v-3.812h1.905l3.81-11.436h1.9l1.905-11.435h1.9v-7.624c4.018-12.5,6.292-38.693,1.905-53.366v-9.529c-9.356-29.466-23.088-56.142-45.718-72.425q-2.858-3.811-5.715-7.624h-3.81l-1.9-3.812h-3.81l-1.9-3.812-7.619-1.906L334.22,165l-17.145-5.717v-7.624Zm-5.714,19.059c15.99,0.287,22.812,8.781,32.383,15.248h3.81l5.715,7.623c32.76,23.631,58.974,82.308,38.1,135.321v5.718h-1.905v5.717h-1.9q-1.9,5.718-3.809,11.436h-1.9V355.6l-3.81,1.906v3.812l-5.715,3.811v3.812l-9.525,7.624-13.334,15.247h-3.81l-3.81,5.718-7.619,1.906-1.905,3.812h-3.81v1.906H324.7v1.906H318.98v1.906h-3.81v1.906h-5.714v1.906l-17.145,1.9c-36.53,10.776-78.727-7.087-100.96-22.871l-13.335-15.247-9.524-7.624v-3.812l-3.81-1.9c-3.2-4.819-8.255-14.889-9.525-20.966a20.189,20.189,0,0,1,7.62-1.906C185.62,390.6,255.02,428.013,322.79,397.526V395.62h3.81v-1.906h3.81l1.9-3.812h3.81q0.951-1.9,1.9-3.811h3.809l7.62-9.53h3.81l1.9-3.812h1.905v-3.812l9.524-7.623V357.5l3.81-1.906,1.9-7.624,3.81-1.906,1.905-9.529h1.9v-3.812h1.905l1.9-11.436h1.9v-7.623c8.552-26.882-.636-60.89-11.429-80.049v-3.812l-3.81-1.906v-3.812l-3.81-1.906v-3.812l-7.619-5.717V208.84l-3.81-1.906-5.715-7.624h-3.81l-3.81-5.718H338.03q-0.952-1.905-1.9-3.812h-3.81l-1.9-3.811H326.6v-1.906h-3.81v-1.906l-11.429-3.812v-7.624Zm-3.81,20.965c10.7,0.177,10.9,2.2,17.144,5.718h3.81l1.905,3.812h3.81q3.808,4.764,7.619,9.53h3.81v1.906l5.715,3.811v3.812l7.62,5.718v3.812l3.809,1.906q0.952,3.811,1.9,7.623H366.6l1.9,7.624h1.905c3.7,8.382,11.82,42.669,7.62,57.178h-1.905v11.435h-1.9l-3.81,17.154h-1.905l-1.9,7.623H364.7v3.812h-1.9q-0.951,2.859-1.9,5.718l-3.81,1.906V355.6l-9.525,7.624-11.429,13.341c-25.581,18.078-66.712,27.878-102.866,13.341h-5.715V388h-3.81v-1.906h-3.809l-1.905-3.812-7.62-1.906-3.81-5.718h-3.81l-11.429-13.341-5.715-3.812V353.69l-5.715-3.812-1.905-7.624q-1.9-.952-3.809-1.906l-5.715-19.059a20.178,20.178,0,0,1,7.619-1.906l1.905,5.718h1.905l1.905,9.53h1.905v3.812h1.905l1.905,5.717,3.81,1.906v3.812l13.334,11.436,5.715,7.623h3.81l1.905,3.812h3.81q0.951,1.906,1.905,3.812h3.809v1.906h3.81v1.906l11.43,1.906c50.626,19.616,97-13.161,116.2-43.836v-3.812h1.9v-3.812h1.905V325.1h1.9v-5.718c12.313-31.81,1.92-68.071-13.334-89.578l-11.429-9.53-7.62-9.529H326.6l-1.905-3.812c-4.557-3.028-11.345-6.416-17.144-7.624v-7.624ZM193.256,300.324c1.832,24.059,20.238,47.135,36.193,57.178l7.62,1.906v1.906h3.81v1.906l13.334,1.9v1.906c7.986,2.351,34.346.145,40-1.906v-1.9h5.715v-1.906l7.62-1.906V357.5h3.81l1.905-3.812h3.809l3.81-5.718,13.335-11.435v-3.812q1.9-.954,3.81-1.906v-3.812h1.9l1.9-7.624h1.905l1.9-11.435h1.9V296.512c7.56-27.26-19.115-69.235-40-74.331v-7.624h1.905v-1.905c3.828,1.093,1.648-.229,3.81,1.905,6.408,1.365,9.17,4.168,13.334,7.624v1.906h3.81v1.906l5.715,3.812v3.812l7.619,5.717,1.9,7.624,3.81,1.906v3.812h1.9v5.718h1.905c3.5,8.945,7,39.11,3.81,49.554h-1.905v7.623h-1.9v5.718h-1.905l-1.9,7.624h-1.905l-1.9,7.624-3.81,1.906v3.811l-7.619,5.718-11.43,13.342h-3.81l-1.905,3.811-7.619,1.906v1.906l-7.62,1.906v1.906h-5.715v1.906H288.5v1.906c-10.211,3.019-41.432-1.356-47.623-3.812v-1.906h-5.715c-25.14-11.114-45.926-37.484-51.433-68.613A24.171,24.171,0,0,1,193.256,300.324ZM286.6,225.993c10.64,0.12,10.967,2.18,17.144,5.718h3.81l3.81,5.718h3.809q2.857,3.811,5.715,7.623h1.905v3.812l5.715,3.812,3.81,11.435h1.905l1.9,13.342c1.331,4.265,4.1,17.637,1.9,24.777h-1.9v7.624h-1.9v3.812h-1.905l-1.9,9.529L326.6,325.1v3.812l-3.81,1.906v3.812l-7.62,5.717v1.906h-3.809l-1.9,3.812h-3.81l-1.905,3.812c-4.341,2.65-10.022,1.888-15.239,3.812V355.6h-7.62V357.5c-13.957,4.1-31.116-3.935-38.1-7.624l-11.43-3.812-5.715-7.623-11.429-9.53c-6.964-10.41-11.721-28-11.43-45.742,2.5-1.542,2.244-1.342,3.81-3.812l5.715,1.906c-0.539,26.32,6.209,40.69,20.954,51.46q1.905,2.857,3.81,5.718l7.62,1.905v1.906H248.5v1.906h5.715c5.344,2.006,16.978,6.8,26.669,3.812v-1.906h7.62V344.16l11.429-3.812v-1.905h3.81v-1.906c2.893-2.222,3.361-2.6,7.62-3.812,1.346-4.947,2.986-6.185,5.714-9.53h1.905v-3.812l3.81-1.906v-3.811c6.474-12.624,7.3-27.524,1.9-41.931l-1.9-9.529-3.81-1.906v-3.812l-3.81-1.906V250.77h-1.9l-3.81-5.718h-3.81l-1.905-3.812h-3.81l-1.9-3.811C289.731,232.252,287.753,240.065,286.6,225.993Zm-24.764,17.153c22.653-.335,30.953,4.134,41.908,15.248l5.715,3.812v3.811h1.9c2.206,3.895.035,4.249,3.809,7.624q0.952,11.435,1.9,22.871h-1.9v7.624h-1.9v5.718h-1.905v3.812l-3.81,1.905v3.812l-7.62,5.718v1.906h-3.81l-1.9,3.812h-3.809v1.906l-13.335,1.906v1.906c-8.653,2.518-16.6-2-20.954-3.812H250.4l-1.905-3.812h-3.809l-1.905-3.812h-3.81V323.2l-3.81-1.906v-3.812l-5.715-3.811-1.905-9.53h-1.905c-2.429-7.269-.987-27.754,1.905-34.307h1.905v-3.812h1.905v-3.811l3.81-1.906,7.62-9.53,11.429-3.812v-1.906h7.62v-1.906Zm1.9,9.53v1.906h-7.62v1.906c-17.022,3.916-29.613,31.854-19.049,51.46l3.81,1.906v3.812L256.118,325.1c9.485,0.714,10.719,2.608,19.049,0h9.525V323.2c12.6-3.074,13.093-12.385,20.954-19.059l1.9-22.871C301.817,263.762,287.7,252.342,263.738,252.676ZM286.6,302.23v7.624l-5.715,1.906c-3.465,3.206-14.4,2.093-20.954,1.906-3.8-5.722-2.122-1.029-5.715-3.812l-1.905-3.812H250.4c-4.3-6.272-3.905-16.047-3.81-26.683,5.666-3.778,5.5-9.331,13.335-11.436,3.6-3.807.957-.066,5.715-1.906,8.069-3.119,10.986.1,19.049,1.906,2.158,3.606,8.926,8.541,5.715,11.436l-1.9,3.812c-9.136-2.42-7.883-8.116-20.954-9.53v1.906h-5.715v1.906c-6.7,5.4-5.963,7.019-5.715,19.059,2.169,2.172.759,0.007,1.905,3.812l5.715,1.906v1.906C268.886,307.6,278.952,302.84,286.6,302.23Zm161.918,80.049c6.1,1.573,5.528,2.247,5.715,9.529-4.04,3.547-4.528,8.692-7.62,13.342l-3.81,1.906v3.812l-3.81,1.906v3.811l-9.524,7.624v3.812q-11.429,10.482-22.859,20.965c-3.829-1.093-1.648.229-3.81-1.906h-1.905v-5.718L423.751,420.4v-3.812l7.619-5.717v-3.812l3.81-1.906v-3.812l3.81-1.906V395.62l3.81-1.906V389.9h1.9v-3.811C445.356,385.069,447.3,384.517,448.515,382.279Zm-76.2,34.306,1.905,5.718h-1.905c-3.708,6.471-8.674,7.711-15.239,11.436v1.906h-3.81v1.906h-3.81l-1.905,3.811h-3.81v1.906H338.03v1.906l-7.62,1.906v1.906l-13.335,1.906V452.8h-5.714V454.7h-9.525v1.906H288.5v1.906c-12.337,3.445-41.67-1.4-49.528-3.812h-9.525V452.8h-5.715v-1.906h-7.619v-1.906h-3.81V447.08H206.59v-1.906l-7.62-1.906v-1.906h-5.714l-1.905-3.811-7.62-1.906-1.905-3.812-7.619-1.906-3.81-5.718h-3.81l-7.62-9.53h-3.81l-1.905-3.811-7.619-5.718v-3.812l-5.715-3.812v-5.718a20.184,20.184,0,0,1,7.62-1.906c5.449,10.141,10.124,12.644,19.049,19.06l5.715,7.623h3.809l3.81,5.718h3.81l1.905,3.812,11.43,3.812v1.906l11.429,3.812v1.906h5.715v1.905h3.81v1.906l13.334,1.906c18.9,6.147,47.952,8.19,68.577,1.906h9.525v-1.906h7.619v-1.906l11.43-1.906v-1.905l11.429-3.812v-1.906h3.81v-1.906l7.62-1.906C358.837,423.913,361.256,417.911,372.318,416.585Zm76.2,1.906h5.715V420.4h1.9v5.718c-2.514,2.106-3.5,5.229-5.714,7.624l-3.81,1.906v3.811l-20.954,19.06-5.715,7.623-9.525,1.906-1.9-5.717c5.781-3.328,8.808-8.814,13.335-13.342C431.29,439.538,442.512,431.329,448.515,418.491ZM141.823,420.4h5.715l3.81,5.718h3.809l5.715,7.624h3.81l1.905,3.812h3.81l1.905,3.811,5.714,1.906v1.906l7.62,1.906v1.906h3.81v1.906l11.429,3.812v1.906l11.43,1.906v1.906h3.81v1.906l24.764,3.811v1.906l40,1.906v-1.906h19.049v-1.906h9.525v-1.906h7.619v-1.905h7.62v-1.906h5.715v-1.906h3.81V456.61h5.714V454.7l11.43-3.812v-1.906h3.81c4.082-2.17,8.529-5.806,13.334-7.624v1.906l3.81,1.906v3.812l-19.049,11.436h-3.81v1.906h-3.81v1.905h-3.81v1.906h-5.714v1.906H330.41v1.906H324.7v1.906H318.98v1.906h-7.619v1.906l-45.718,3.812v-1.906H238.974v-1.906h-9.525v-1.906H221.83v-1.906h-5.715v-1.906H210.4v-1.906h-5.715v-1.906H198.97v-1.906l-11.429-3.811v-1.906h-3.81V456.61h-3.81V454.7L172.3,452.8v-1.906l-5.715-1.906-1.905-3.812h-3.81l-3.81-5.718h-3.81q-0.951-1.905-1.9-3.811h-1.905l-1.905-3.812h-3.81c-1.5-1.178-1.435-3.812-3.81-5.718ZM2.764,439.456c8.744,2.367,9.264,8.3,13.334,15.248H18v3.812l5.715,3.812,1.905,5.717h1.9v3.812l5.715,3.812v3.812l11.429,9.529v3.812l7.62,5.718,15.239,17.153h3.81l7.62,9.53h3.81l5.715,7.624c6.7,4.74,12.745,4.178,15.24,13.341H101.82v1.906H94.2c-3.134-4.737-6.8-4.346-11.43-7.624l-5.715-7.623h-3.81l-9.525-11.436h-3.81l-38.1-41.93v-3.812L16.1,471.857v-3.812l-3.81-1.906v-3.811l-3.81-1.906V456.61L4.669,454.7C1.267,449.237,1.029,444.816,2.764,439.456ZM-20.1,441.362h5.715v1.906c7.245,6.342,11.542,20.177,17.144,28.589l3.81,1.906v3.812l3.81,1.906v3.812L18,489.01v3.812l9.525,7.624v3.812l3.81,1.906L40.862,517.6l11.43,9.53,3.81,5.718h3.81l9.525,11.435h1.9v3.812h-1.9V550h-7.62c-3.8-6.566-5.95-5.563-11.43-9.53l-3.81-5.717L31.338,521.411c-8.117-8.123-14.167-17.109-20.954-26.683l-5.715-3.812v-3.811l-5.715-3.812v-3.812l-3.81-1.906v-3.812l-3.81-1.906v-3.812c-5.069-7.666-11.989-13.089-13.334-24.777h1.9v-1.906Zm474.325,3.812c4.519,0.384,4.711.79,7.619,1.906-1.092,3.831.229,1.649-1.9,3.812-1.858,7.345-6.95,8.855-11.429,13.341-7.826,7.838-15.036,21.244-28.574,22.872a20.209,20.209,0,0,1-1.9-7.624c10.19-4.658,15.467-13.568,22.859-20.965C445.421,453.986,450.9,450.958,454.23,445.174Zm-308.6,5.718c4.8,0.29,6.75.04,9.524,1.906V454.7h3.81l1.905,3.812h3.81l1.905,3.812,11.429,3.811v1.906h3.81v1.906l11.43,3.812v1.906h5.714v1.906h5.715v1.906H210.4v1.906h5.715v1.906l15.239,1.906v1.906h11.43v1.9h24.764v1.906l15.239-1.906c18.553-.24,39.25-3.976,53.338-9.529v-1.906h5.714v-1.906l17.145-5.718v1.906h1.905v7.624l-11.43,3.812V485.2l-40,11.435H296.121v1.906H273.262v1.906l-28.573-1.906v-1.906l-22.859-1.906v-1.906L208.5,490.916V489.01l-11.429-1.9V485.2l-9.525-1.906v-1.906l-7.62-1.906v-1.906h-3.81v-1.906H172.3v-1.906h-3.81v-1.906h-3.81v-1.906l-5.715-1.906-1.905-3.812h-3.81q-0.951-1.9-1.9-3.811l-5.715-1.906v-7.624ZM38.957,458.516h5.715L56.1,473.763l5.715,3.812v3.812l13.334,11.435,3.81,5.718h3.81l7.62,9.53H94.2l5.715,7.623h3.81q1.9,2.859,3.809,5.718h3.81l1.905,3.812,7.62,1.906,1.905,3.812h3.81l1.905,3.812,5.714,1.906v3.811c-2.5,1.543-2.243,1.343-3.81,3.812-4.467-1.812-9.29-3.068-13.334-5.718l-1.905-3.811-7.62-1.906q-1.9-2.859-3.809-5.718h-3.81l-1.905-3.812H94.2l-5.715-7.624h-3.81l-9.525-11.435-13.334-9.53v-3.812L46.577,477.575v-3.812l-3.81-1.906c-2.209-2.4-3.189-5.528-5.715-7.624Zm91.436,5.717c13.247,1.471,25.57,15.269,36.194,20.966L208.5,502.352h7.62v1.906l19.049,1.906v1.906H248.5c20.084,5.737,52.409,1.439,68.577-3.812l15.24-1.906v-1.906l17.144-3.812v-1.906l19.049-5.718a20.19,20.19,0,0,1,1.905,7.624c-4.485,2.072-8.423,3.342-13.334,5.718v1.906h-5.715v1.906h-5.715v1.906h-5.715v1.906H334.22v1.906l-15.24,1.905v1.906L288.5,517.6v1.906c-9.1,2.528-33.639-.105-40-1.906H231.354v-1.906H221.83v-1.906h-7.62v-1.905l-13.335-1.906V508.07h-5.714v-1.906h-5.715v-1.906h-3.81v-1.906h-5.715v-1.906l-11.429-3.812v-1.906h-3.81v-1.906l-11.43-3.812q-0.951-1.9-1.9-3.811h-3.81v-1.906l-5.715-1.906-1.905-3.812h-3.81v-1.906l-7.619-5.718Q129.44,467.092,130.393,464.233Zm-57.147,1.906c6.222,1.549,9.051,5.946,13.334,9.53v1.906h3.81l1.9,3.812,7.62,5.718,3.81,5.717h3.809l3.81,5.718h3.81l3.81,5.718h3.81l1.905,3.812h3.81q0.951,1.9,1.9,3.812l7.62,1.905,1.905,3.812h3.81v1.906c3.049,1.685,15.967,5.52,17.144,7.624v5.718a24.187,24.187,0,0,1-9.524,1.906c-6.706-7.674-17.8-9.578-26.669-15.248l-1.905-3.812h-3.81l-1.905-3.811h-3.81l-3.81-5.718H105.63q-1.905-2.859-3.81-5.718L96.1,498.54l-7.62-9.53L71.341,473.763C69.841,469.956,72.594,468.151,73.246,466.139Zm30.479,1.906h5.714l5.715,7.624h3.81l5.715,7.624h3.81q0.951,1.9,1.9,3.812h3.81l1.905,3.811h3.81l1.905,3.812,7.62,1.906,1.905,3.812h3.809v1.906h3.81v1.906c3.532,1.9,19.7,7.3,20.954,9.529v5.718a20.159,20.159,0,0,1-7.619,1.906c-3.432-3.7-3.616-1.619-7.62-3.812v-1.906h-3.81v-1.906h-3.81v-1.905h-3.81v-1.906h-3.809V508.07h-3.81v-1.906h-3.81v-1.906l-5.715-1.906L134.2,498.54h-3.81q-0.951-1.905-1.9-3.812h-3.81l-3.81-5.718h-3.81l-5.715-7.623C104.375,476.3,100.127,479.007,103.725,468.045Zm363.839,0v7.624h-1.905v3.812h-1.9l-9.524,11.435h-3.81L440.9,502.352h-3.81l-1.9,3.812h-5.714a20.185,20.185,0,0,1-1.905-7.624l19.049-15.247,3.81-5.718h3.81v-1.906C458.71,471.923,460.057,469.077,467.564,468.045ZM-18.19,481.387c4.755,1.289,3.1.994,5.715,3.812h1.9v3.811l5.715,3.812v3.812l5.715,3.812c6.229,8.81,11.591,17.3,19.049,24.777,6.074,6.085,12.6,7.178,13.334,19.059-2.161,1.609-.277-0.241-1.9,1.906h-3.81L8.479,525.223l-3.81-1.906v-3.812l-9.525-7.623V508.07l-5.715-3.812-1.9-5.718-3.81-1.906C-20.04,490.868-20.409,487.888-18.19,481.387ZM473.279,485.2c4.655,1.093,4.2,2,7.619,3.811-5.687,12.535-17.881,19.052-28.573,26.683l-5.715,7.624H440.9a20.2,20.2,0,0,1-1.9-7.624l15.24-11.435q1.9-2.859,3.809-5.718h3.81Q467.564,491.87,473.279,485.2Zm-80.007,11.435c5.7,1.48,5.011,1.174,5.715,7.624-3.817,2.057-7.762,5.567-11.43,7.624h-3.809l-1.9,3.811h-5.715V517.6l-7.62,1.906v1.906h-5.715v1.906h-3.809v1.906h-5.715v1.906h-5.715v1.906h-5.715v1.906H334.22v1.906H326.6v1.906h-9.525v1.906H305.646c-7.977,2.311-41.9,7.01-53.338,3.811v-1.906H233.259v-1.9h-9.525v-1.906h-7.619v-1.906H206.59v-1.906h-1.905v-5.718c3.275-1.238,5.982-1.815,11.43-1.906v1.906h7.619v1.906h9.525v1.906H250.4v1.906c8.847,2.436,32.006-.162,38.1-1.906l28.573-1.906,40-11.436v-1.906h3.81v-1.905H366.6v-1.906h3.81V508.07C377.675,504.23,388.293,502.49,393.272,496.634Zm100.961,3.812v7.624L480.9,519.505l-1.905,3.812h-3.809l-7.62,9.53c-4.285,3.09-8.205,3.652-11.43,7.623-3.828-1.093-1.648.229-3.809-1.906h-1.9v-5.717l15.239-11.436,3.81-5.718h3.81l1.905-3.811h1.9l9.524-11.436h7.62ZM355.174,544.282v-5.718c1.951-.988,3.364-3.572,3.81-3.811H364.7v-1.906h3.81v-1.906h5.715v-1.906l7.62-1.906v-1.906l11.429-3.812c8.6-4.615,11.754-10.527,24.764-11.435,1.608,2.162-.241.277,1.9,1.906v3.811c-2.391,1.266-2.626,3.026-3.81,3.812h-3.81l-1.905,3.812-11.429,3.812C385.88,534.14,374.791,543.766,355.174,544.282Zm146.678-30.5h5.715v1.906h1.9v5.718c-10.342,6.1-14.057,19.115-28.574,20.965l-1.905-5.717,3.81-1.906Zm-85.721,20.966v7.623a24.169,24.169,0,0,1-9.524,1.906l-1.905-5.718C409.678,535.93,407.927,535.193,416.131,534.753Z" transform="translate(49.515 -3)"/>
      <path id="谛听云_" data-name="谛听云   " class="cls-1" d="M772.59,160.809a65,65,0,0,0-32.55-8.19,67.6,67.6,0,0,0-22.26,3.78l17.64,17.64-32.76,27.72a178.885,178.885,0,0,1,45.36-9.66q4.194,0,10.08-.42a26.379,26.379,0,0,0,15.54,5.04,19.92,19.92,0,0,0,11.13-3.15,14.015,14.015,0,0,0,6.09-9.45Q787.08,169,772.59,160.809Zm198.45,64.05q-15.966-10.493-39.48-10.5a71.782,71.782,0,0,0-19.74,2.52q7.56-7.56,7.56-20.58a30.258,30.258,0,0,0-4.41-16.59q-4.41-6.93-13.23-8.19l47.88-12.6q-2.52-10.493-10.5-15.12t-19.74-4.62a55.706,55.706,0,0,0-22.68,4.62l7.56-12.6q0-15.12-9.87-21.21t-25.41-6.09a79.856,79.856,0,0,0-14.7,1.26,98.945,98.945,0,0,0-13.02,3.36l27.72,25.2a11.748,11.748,0,0,1,.84,5.04q0,6.3-5.46,11.34a25.32,25.32,0,0,1-5.46,3.78q-4.2,1.26-19.74,8.82-12.186,5.887-19.74,5.88a22.281,22.281,0,0,1-13.44-4.62q-1.26,11.34,5.46,19.32t16.38,7.98a22.294,22.294,0,0,0,13.44-4.62,40.167,40.167,0,0,0-8.19,13.65,44.183,44.183,0,0,0-2.31,14.07,51.974,51.974,0,0,0,2.94,16.38q0.837,2.52,2.52,6.3-8.82,7.148-25.62,8.4t-22.26,4.2q-9.666,22.68-25.2,53.34-12.186,24.364-19.74,38.22-4.2,7.147-7.98,14.28,0-31.5,8.82-66.78,2.934-11.753,8.82-28.98,4.617-6.712,4.62-12.18,0-9.233-8.82-15.33a34.66,34.66,0,0,0-20.16-6.09q-15.966,0-21,13.44-13.86,11.764-25.62,16.38a48.1,48.1,0,0,1-17.22,3.36,34.818,34.818,0,0,1-12.6-2.1q3.357,21.007,24.36,31.5,17.217,8.82,41.16,8.82,0,9.668-2.94,25.62-5.886,31.925-5.88,42.42a68.8,68.8,0,0,0,3.15,21.42,58.652,58.652,0,0,0,10.71,18.9q3.78,4.2,7.56,7.98,8.82,9.245,14.28,9.24t8.4-7.14q0-34.856,10.08-73.92,3.357-13.013,10.08-31.92,0,5.04,3.78,6.72a25.678,25.678,0,0,0,3.78.84q10.917-37.8,47.04-56.7,11.754-6.3,33.6-11.34a13.772,13.772,0,0,1,4.2,10.08,17.209,17.209,0,0,1-.84,5.46,4.085,4.085,0,0,1-.84,2.1l-40.32,10.08q-6.3,0-9.66,3.78a13.4,13.4,0,0,0-3.36,9.24,21.484,21.484,0,0,0,7.98,17.22q4.617,2.52,4.62,6.72,0,1.685-2.31,7.35t-2.31,8.61a33.384,33.384,0,0,0-7.98,21.84q0,20.584,18.06,33.6,6.3-1.673,8.4-5.88t2.1-11.34q0-3.78-.42-10.92a41.985,41.985,0,0,1,1.05-10.08,15.04,15.04,0,0,1,3.99-7.14q2.52-.835,7.98-5.88t7.98-5.04q2.52,0,4.2,3.36a209.113,209.113,0,0,1,1.26,23.1q0,3.78-1.05,26.46t-1.05,36.96a250.323,250.323,0,0,0,2.31,35.7,135,135,0,0,0,8.61,31.5q11.34-19.746,15.12-46.2,2.52-17.216,2.52-48.3v-18.9a110.254,110.254,0,0,0,16.38,23.94q3.357,3.78,8.82,8.82,18.477-10.08,25.62-37.38,4.617-18.053,4.62-48.3a38.325,38.325,0,0,0,1.26-9.24q0-15.955-14.7-26.46-4.626-3.356-14.28-7.14c-1.4-1.115-3.5-1.68-6.3-1.68a55.345,55.345,0,0,0-10.29,1.47,60.349,60.349,0,0,1-8.61,1.47q-8.82,0-7.56-11.34l32.76-5.04q4.194-.412,11.76-0.42,6.714,0.424,14.28.84t19.74,0.42a113.652,113.652,0,0,0,12.81-.84,53.419,53.419,0,0,0,11.97-2.52q0-22.68-18.9-34.86h0ZM904.26,257.2q-5.04,1.26-12.6,2.52v-22.68l45.36-12.6,20.16,5.04a141.04,141.04,0,0,1-52.92,27.72h0Zm-40.32-28.14a70.1,70.1,0,0,1-15.12,5.46l12.6-27.72,15.12-20.16-22.68,7.56a14.342,14.342,0,0,1,4.2-13.86q1.674-1.673,6.72-3.99a24.091,24.091,0,0,1,10.08-2.31,19.521,19.521,0,0,1,13.02,4.62A14.335,14.335,0,0,1,893.34,190q0,7.56-6.72,14.28-6.3,15.968-22.68,24.78h0Zm50.4,131.46-22.68-7.56v-50.4q4.617-2.1,5.46-2.52a35.485,35.485,0,0,1,8.4-.84,29.441,29.441,0,0,1,10.08,1.68,32.913,32.913,0,0,1,3.78,1.68Zm-50.4-68.04L841.26,307.6q0-11.34-8.82-19.32a59.886,59.886,0,0,0-8.82-5.88,71.344,71.344,0,0,1,21.63-6.09q10.287-1.043,18.69-1.47v17.64Zm535.92-57.12a84.223,84.223,0,0,0-7.56-8.4,22.757,22.757,0,0,0-9.45-7.56,29.747,29.747,0,0,0-11.13-2.1,43.2,43.2,0,0,0-11.97,1.89,66.917,66.917,0,0,0-12.81,5.25,12,12,0,0,0-6.3-9.03,23.14,23.14,0,0,0-11.76-3.15q-14.7,0-14.7,12.18-1.68,12.6-18.06,18.48-13.86,3.367-27.3,6.72a48.32,48.32,0,0,0,2.94-15.96q0-7.136-3.78-15.96-1.68-4.615-6.72-10.92l50.4-30.24q4.2-4.192,22.26-15.54,13.86-8.82,18.06-17.22-6.3-13.435-17.64-20.58a45.635,45.635,0,0,0-24.78-7.14,41,41,0,0,0-15.33,2.94,31.542,31.542,0,0,0-12.81,9.66,40.37,40.37,0,0,1,11.34-4.83,45.36,45.36,0,0,1,10.92-1.47,41.952,41.952,0,0,1,5.25.42q3.15,0.424,5.25.84-17.64,17.64-41.16,37.8-18.06,15.12-33.18,27.3-13.44,10.5-13.86,10.5a34.443,34.443,0,0,0-15.12-20.58q-1.68-.835-5.04-2.1a40.792,40.792,0,0,0-17.64-4.2q-18.48,0-37.8,17.64-9.66,8.82-27.72,31.92l-32.76-10.08q14.28,14.284,19.95,49.56t17.85,51.24l5.04,5.04c2.8,1.405,4.9,2.1,6.3,2.1q6.72,0,8.4-12.18a110.19,110.19,0,0,0,.42-11.76v-8.4l63-22.68a51.743,51.743,0,0,1-4.62-21q0-13.435,8.82-25.62a46.792,46.792,0,0,1,8.4-8.82,19.881,19.881,0,0,0,7.56,15.96,29.968,29.968,0,0,0,7.56,4.2q-2.52,15.545-4.62,30.66-2.1,10.08-7.98,14.7a17.741,17.741,0,0,0-2.94,9.66q0,5.887,5.46,11.34a48.722,48.722,0,0,0,5.04,4.2q-4.2,10.5-4.62,17.64t-0.42,10.08q-2.94,7.984-6.3,17.01t-8.82,9.03q-3.78,0-7.56-3.36a55.96,55.96,0,0,0-.42,6.93v7.35q0,10.928,2.94,17.43,2.94,6.518,11.76,6.51h2.94a12.189,12.189,0,0,0,2.94-.42q15.96-14.272,24.78-41.58,5.04-15.12,13.02-46.62l47.88-25.2V383.2q2.1,11.764,3.36,44.31t6.72,48.93q0.84,2.52,2.31,6.72t3.15,4.2q2.1,0,4.62-5.88,9.24-58.372,12.18-105t2.94-111.72a198.969,198.969,0,0,1,35.28-6.09q15.54-1.043,27.72-1.47-1.68-10.493-10.08-21.84h0Zm-229.32-.42q-1.68,3.78-5.04,9.66l-17.64,12.6q-1.68-13.86-11.34-26.46a64.71,64.71,0,0,0-8.82-8.82,47,47,0,0,1,16.38-9.66,54.425,54.425,0,0,1,17.22-2.94,48.518,48.518,0,0,1,10.08.84q3.78,0.847,6.72,1.68-1.26,10.08-7.56,23.1h0Zm582.12-71.4q0-11.752-11.76-21.21t-24.36-11.13a174.637,174.637,0,0,1-37.17,10.5,215.748,215.748,0,0,1-34.23,2.94q-6.72,0-10.5-.21a57.878,57.878,0,0,1-6.3-.63l12.6,27.72,22.68,30.24q-16.8,18.065-46.2,36.96-16.38,10.08-49.56,31.08l2.52,2.52q30.24-9.656,64.68-28.98,19.32-10.915,57.96-35.7,34.44-22.256,56.28-33.6,3.36-5.875,3.36-10.5h0Zm48.3,92.4q0-15.532-14.7-25.2-4.62-2.933-14.28-6.3l-118.44,42.84q-12.6,1.684-49.98,12.6-31.08,9.244-52.08,9.24-4.62,0-9.66-.42a79.788,79.788,0,0,1-9.24-1.26h-7.56a43.524,43.524,0,0,0-3.78,18.06,34.622,34.622,0,0,0,5.25,19.11q5.25,8.19,16.17,10.71l120.96-37.8-75.6,57.96a29.809,29.809,0,0,0-5.04,9.45,35.927,35.927,0,0,0-1.26,9.87q2.94,16.8,6.3,33.6,3.78,8.82,9.24,12.39a21.755,21.755,0,0,0,12.18,3.57q7.98,0,17.01-6.09a48.924,48.924,0,0,0,14.49-14.91q7.14-2.1,36.96-18.06,22.26-11.752,38.22-11.76a52.27,52.27,0,0,1,15.54,2.1,84.12,84.12,0,0,0,20.58,39.9,89.756,89.756,0,0,0,14.7,13.02q9.24-.836,12.18-6.72t2.94-15.54a66.522,66.522,0,0,1-.42-7.35v-6.93a30.84,30.84,0,0,1,.42-6.3q0-28.98-21.21-51.03t-49.35-22.05c-1.96,1.68-2.94,3.5-2.94,5.46q3.36,7.56,6.3,13.65t1.68,11.13l-30.24,5.04q-2.1.425-28.56,10.08a49.523,49.523,0,0,1-16.8,3.36,25.315,25.315,0,0,1-7.56-.84l73.08-57.96q15.96-17.64,42.84-25.62,25.2-5.876,50.4-12.18a37.021,37.021,0,0,0,1.26-8.82h0Z" transform="translate(49.515 -3)"/>
    </g>
  </g>
</svg>
